<svg width="214" height="40" viewBox="0 0 214 40" fill="none" xmlns="http://www.w3.org/2000/svg">
<g clip-path="url(#clip0_1264_104)">
<path d="M26.9886 8.61424C27.6322 8.61424 27.9513 8.61424 28.1555 8.74247C28.3402 8.85676 28.4634 9.02402 28.5194 9.2331C28.5837 9.46447 28.4858 9.78226 28.2955 10.4123C27.1285 14.2537 26.4988 18.332 26.4988 22.5525C26.4988 27.1047 25.7684 31.4897 24.4168 35.5931C24.3132 35.9081 24.2629 36.0642 24.1593 36.1869C24.0698 36.2928 23.9494 36.3792 23.8207 36.4294C23.6724 36.488 23.5017 36.488 23.1603 36.488H10.3376C9.69395 36.488 9.37493 36.488 9.17064 36.3597C8.98594 36.2454 8.86281 36.0782 8.80684 35.8691C8.74247 35.6377 8.84042 35.3227 9.03071 34.6899C10.1977 30.8458 10.8273 26.7702 10.8273 22.5497C10.8273 17.9975 11.5577 13.6125 12.9094 9.50629C13.013 9.19128 13.0633 9.03517 13.1669 8.91252C13.2564 8.80659 13.3768 8.72017 13.5055 8.66999C13.6538 8.61145 13.8245 8.61145 14.1659 8.61145H26.9886V8.61424Z" fill="#00E0E1"/>
<path d="M20.3114 1.48303C20.1127 3.21416 19.8972 4.93972 19.6678 6.66249H14.1044C13.8721 6.65691 13.3096 6.65133 12.7835 6.85762C12.3497 7.02767 11.958 7.30922 11.6585 7.66883C11.3003 8.10091 11.1352 8.62778 11.0652 8.84522C11.0596 8.86752 11.054 8.88703 11.0484 8.90097C9.63521 13.1995 8.86843 17.788 8.86843 22.5521C8.86843 24.3613 8.74809 26.137 8.51302 27.8765H1.44965C0.884355 27.8765 0.59891 27.8765 0.403016 27.7594C0.22951 27.6591 0.10078 27.5002 0.033616 27.3106C-0.0391446 27.096 0.0168251 26.8172 0.131563 26.2625C1.81065 18.025 3.14553 9.662 4.1138 1.19033C4.16418 0.766604 4.18656 0.55753 4.28451 0.398634C4.37126 0.259252 4.4972 0.147745 4.64552 0.0780542C4.81343 0 5.02611 0 5.45148 0H18.9821C19.4999 0 19.7601 0 19.9476 0.103143C20.1155 0.195136 20.2471 0.342881 20.317 0.515715C20.401 0.716426 20.3702 0.97289 20.3114 1.48303Z" fill="#00E0E1"/>
<path d="M62.4345 5.72486C64.3039 6.64757 65.7675 7.93546 66.8253 9.59133C67.8831 11.2472 68.412 13.1093 68.412 15.1973C68.412 18.5536 67.7236 21.5281 66.3356 24.1038C64.9475 26.6796 62.9746 28.6756 60.414 30.0945C57.8534 31.5134 54.8422 32.2215 51.3945 32.2215H42.4897C41.8181 32.2215 41.3003 31.6193 41.4235 30.9531L43.7882 17.5166L45.9486 5.23981C46.0438 4.7213 46.4859 4.34497 47.0148 4.34497H56.1379C58.4606 4.34497 60.5567 4.80493 62.4289 5.72765H62.4373L62.4345 5.72486ZM57.5148 25.4949C59.0735 24.4523 60.2349 23.078 61.0101 21.3747C61.7852 19.6715 62.163 17.8288 62.163 15.8552C62.163 12.0277 59.0007 10.2409 54.165 10.2409H52.5223C52.0885 10.2409 51.7191 10.5503 51.6435 10.974L48.9626 25.8628C48.887 26.2866 49.2172 26.6796 49.651 26.6796H51.2098C53.457 26.6796 55.97 26.5486 57.5175 25.5032V25.4949H57.5148Z" fill="#00131C"/>
<path d="M85.0939 30.6631C83.2693 31.9148 80.7842 32.5448 77.6331 32.5448C74.8206 32.5448 72.579 31.8144 70.9139 30.3453C69.2489 28.8846 68.4121 26.8663 68.4121 24.3212C68.4121 21.7761 68.9102 19.6742 69.9177 17.7312C70.9251 15.7882 72.3748 14.2522 74.2749 13.1483C76.1751 12.0333 78.4139 11.4785 80.9941 11.4785C83.7786 11.4785 86.009 12.2089 87.6936 13.6612C89.3783 15.1136 90.2151 17.157 90.2151 19.7774C90.2151 20.5635 90.1199 21.4193 89.9408 22.3336C89.8373 22.8438 89.3867 23.2285 88.8494 23.2285H75.1033C74.8962 23.2285 74.7171 23.3846 74.6891 23.5853C74.6135 24.1066 74.5856 24.4801 74.5856 24.7087C74.5856 25.8684 74.8962 26.7911 75.5091 27.4573C76.1219 28.1236 76.9475 28.4609 77.9941 28.4609C79.2171 28.4609 80.2245 28.1598 81.0053 27.5493C81.6181 27.0754 82.0967 26.5541 82.4549 25.9882C82.6424 25.6955 82.981 25.5311 83.3392 25.5673L88.0826 26.0524C88.5612 26.097 88.8438 26.6182 88.6004 27.028C87.7916 28.4246 86.6246 29.6484 85.1107 30.6799L85.1023 30.6715L85.0939 30.6631ZM77.426 16.605C76.6452 17.2545 76.0883 18.0574 75.7413 19.0247C75.6462 19.2979 75.8449 19.5822 76.1359 19.5822H84.0388C84.0948 19.4094 84.1144 19.1446 84.1144 18.7877C84.1144 17.8288 83.8234 17.0343 83.2581 16.3959C82.6844 15.7659 81.8364 15.4453 80.717 15.4453C79.4381 15.4453 78.3355 15.83 77.4148 16.605H77.4232H77.426Z" fill="#00131C"/>
<path d="M98.3024 15.108H98.4619C99.2455 13.9121 100.169 13.0117 101.227 12.3928C102.285 11.7851 103.606 11.4729 105.201 11.4729C105.539 11.4729 105.833 11.4924 106.079 11.5203C106.438 11.5677 106.692 11.8799 106.628 12.2284C106.44 13.2681 106.035 15.4955 105.836 16.6161C105.769 16.9841 105.43 17.2322 105.052 17.1959C104.599 17.1486 104.118 17.1318 103.6 17.1318C100.023 17.1318 97.9078 18.8881 97.2474 22.4033L95.5963 31.6109C95.5291 31.9593 95.2185 32.2186 94.8519 32.2186H90.114C89.6719 32.2186 89.3305 31.8227 89.406 31.399L92.795 12.5852C92.8621 12.2367 93.1728 11.9775 93.5394 11.9775H97.9946C98.4479 11.9775 98.7865 12.3733 98.711 12.8054L98.3052 15.1052L98.3024 15.108Z" fill="#00131C"/>
<path d="M123.87 12.2897C124.981 12.9616 125.851 13.9317 126.486 15.175C127.121 16.4294 127.438 17.8762 127.438 19.5348C127.438 21.7845 126.998 23.8947 126.12 25.8879C125.241 27.8783 123.982 29.484 122.336 30.7105C120.691 31.9371 118.788 32.5448 116.619 32.5448C115.329 32.5448 114.134 32.2772 113.031 31.742C111.929 31.2067 111.162 30.415 110.725 29.3725H110.566L110.202 31.4911C110.126 31.9148 109.754 32.2187 109.315 32.2187H105.148C104.644 32.2187 104.252 31.7671 104.345 31.2681L108.951 5.19795C109.035 4.69896 109.474 4.33936 109.989 4.33936H114.184C114.755 4.33936 115.175 4.84671 115.08 5.3903L113.521 14.177H113.68C114.428 13.1818 115.323 12.4542 116.353 11.9747C117.391 11.5036 118.65 11.2639 120.153 11.2639C121.527 11.2639 122.77 11.604 123.881 12.2786L123.872 12.2869L123.87 12.2897ZM118.636 26.5514C119.543 25.584 120.187 24.469 120.579 23.2062C120.97 21.9434 121.158 20.8367 121.158 19.8972C121.158 18.6261 120.839 17.6281 120.206 16.9284C119.571 16.2287 118.704 15.8774 117.59 15.8774C116.171 15.8774 115.012 16.3569 114.114 17.3159C113.219 18.2748 112.572 19.3899 112.172 20.6611C111.769 21.9322 111.573 23.0863 111.573 24.1094C111.573 25.3081 111.881 26.2587 112.508 26.9584C113.123 27.6581 113.983 28.0093 115.066 28.0093C116.54 28.0093 117.727 27.5215 118.634 26.5514H118.636Z" fill="#00131C"/>
<path d="M138.517 32.2715C137.344 34.549 136.239 36.2411 135.189 37.3562C134.14 38.4713 133.091 39.1905 132.038 39.5111C130.989 39.8428 129.665 40.0017 128.09 40.0017C127.001 40.0017 126.036 39.9543 125.202 39.8595C124.715 39.8038 124.376 39.341 124.46 38.8476L125.023 35.5972C125.098 35.154 125.509 34.8418 125.96 34.878C126.411 34.917 126.926 34.9337 127.496 34.9337C128.35 34.9337 129.072 34.7553 129.654 34.4041C130.236 34.0556 130.759 33.4312 131.23 32.5419L131.728 31.5774V31.5384L127.245 12.7357C127.093 12.0945 127.572 11.4701 128.23 11.4701H132.45C132.937 11.4701 133.359 11.8185 133.443 12.3008L135.892 24.9623H136.051L141.931 12.0555C142.091 11.6959 142.446 11.4701 142.841 11.4701H147.528C148.278 11.4701 148.756 12.2729 148.418 12.9336L138.506 32.2548L138.514 32.2632L138.517 32.2715Z" fill="#00131C"/>
<path fill-rule="evenodd" clip-rule="evenodd" d="M160.029 9.05589C162.019 9.05589 163.812 10.1403 165.133 11.2526C165.589 11.6317 166.278 11.5034 166.555 10.9738L168.209 7.85163C168.422 7.44463 168.312 6.94285 167.94 6.66688C166.163 5.35947 163.717 3.92383 160.354 3.92383C154.857 3.92383 150.321 6.82298 149.621 11.5118C149.621 11.5397 149.621 11.5871 149.613 11.615C149.577 11.9941 149.537 12.3843 149.537 12.783C149.537 14.8486 150.066 16.1728 151.138 17.2683C151.158 17.2962 151.194 17.3241 151.202 17.3324C152.364 18.4726 154.113 19.3535 155.879 19.9445C158.381 20.8142 160.046 21.7509 160.046 23.6046C160.046 25.9407 157.924 27.3485 155.73 27.3485C153.917 27.3485 151.247 26.3282 149.425 24.7727C148.98 24.3935 148.281 24.5218 148.012 25.0514C147.483 26.0522 146.719 27.4795 146.291 28.2767C146.095 28.6475 146.171 29.1019 146.467 29.389C148.457 31.2707 152.14 32.5474 155.618 32.5474C160.77 32.5474 166.667 29.5172 166.667 23.1056C166.667 19.0663 163.941 16.8808 159.321 15.2584C157.2 14.5085 155.954 13.7475 155.954 12.2394C155.954 9.94237 158.297 9.02523 160.009 9.03359L160.029 9.06147V9.05589Z" fill="#00131C"/>
<path fill-rule="evenodd" clip-rule="evenodd" d="M179.57 16.9651C176.254 16.9651 174.11 19.8754 174.11 23.2624C174.11 25.4869 175.423 27.1511 177.732 27.3351C179.898 27.508 181.879 26.1838 182.867 24.2213C184.745 20.4886 183.211 16.9567 179.581 16.9567M167.987 23.9258C167.987 17.4278 172.51 11.7968 179.839 11.7968C185.567 11.7968 189.821 15.1057 189.821 20.4134C189.821 26.9894 185.299 32.5424 177.855 32.5424C172.241 32.5424 167.987 29.2363 167.987 23.9258Z" fill="#00131C"/>
<path fill-rule="evenodd" clip-rule="evenodd" d="M204.058 6.10956C203.963 6.62248 203.484 6.99882 202.969 6.92355C202.745 6.88731 202.51 6.8678 202.247 6.8678C200.031 6.8678 199.345 8.69092 198.998 10.4499L198.651 12.471H201.749C202.367 12.471 202.829 13.0229 202.726 13.6306L202.267 16.2204C202.183 16.6971 201.769 17.0344 201.29 17.0344H197.921L195.405 31.4103C195.321 31.8786 194.907 32.2243 194.428 32.2243H190.438C189.819 32.2243 189.357 31.6723 189.461 31.0646L193.104 10.2464C193.902 5.83358 195.855 1.92529 202.079 1.92529C202.681 1.92529 203.224 1.94481 203.722 2.00892C204.284 2.08419 204.659 2.60827 204.567 3.16022L204.041 6.11513H204.061L204.058 6.10956Z" fill="#00131C"/>
<path fill-rule="evenodd" clip-rule="evenodd" d="M205.879 7.60401H209.475C210.161 7.60401 210.673 8.20893 210.561 8.86124L209.903 12.5465C209.903 12.5465 209.923 12.6023 209.951 12.6023H212.909C213.595 12.6023 214.107 13.2072 213.984 13.8595L213.547 16.2959C213.452 16.8088 212.996 17.1796 212.472 17.1796H209.201C209.201 17.1796 209.153 17.1991 209.153 17.2158L207.765 25.0324C207.726 25.3781 207.69 25.7851 207.69 26.0555C207.69 27.3015 208.68 27.6835 209.915 27.6835C210.172 27.6835 210.525 27.6361 210.875 27.5719C211.493 27.4688 212.025 27.9817 211.921 28.5867L211.473 31.0704C211.406 31.4607 211.121 31.7785 210.74 31.8984C209.836 32.1855 208.591 32.3723 207.639 32.3723C203.92 32.3723 201.637 30.9311 201.637 27.795C201.637 27.19 201.712 26.3147 201.866 25.6373L204.805 8.47933C204.9 7.9664 205.347 7.58728 205.89 7.58728L205.882 7.60679L205.879 7.60401Z" fill="#00131C"/>
</g>
<defs>
<clipPath id="clip0_1264_104">
<rect width="214" height="40" fill="white"/>
</clipPath>
</defs>
</svg>
